<svg width="1017" height="888" viewBox="0 0 1017 888" fill="none" xmlns="http://www.w3.org/2000/svg">
<g filter="url(#filter0_d_61_184)">
<path d="M606.689 132.642C606.689 132.642 634.015 103.926 655.877 99.8232C655.877 99.8232 702.332 143.582 713.263 206.485C724.194 269.388 690.035 280.328 690.035 280.328L625.817 225.63L612.154 177.769L606.689 132.642Z" fill="#E6CBAA"/>
<path d="M606.689 132.642C606.689 132.642 628.55 106.661 655.877 99.8232C655.877 99.8232 710.749 157.229 715.422 225.616C720.095 294.003 651.354 290.735 651.354 290.735L606.689 132.642Z" stroke="black" stroke-width="6" stroke-linecap="round" stroke-linejoin="round"/>
<path d="M124.372 291.268C124.372 291.268 86.1144 254.346 92.946 159.992C92.946 159.992 121.639 158.624 155.798 175.034C189.956 191.443 207.172 225.616 207.172 225.616L124.372 291.268Z" fill="#E6CBAA"/>
<path d="M124.372 291.268C124.372 291.268 86.1144 254.346 92.946 159.992C92.946 159.992 121.639 158.624 155.798 175.034C189.956 191.443 207.172 225.616 207.172 225.616L124.372 291.268Z" stroke="black" stroke-width="6" stroke-linecap="round" stroke-linejoin="round"/>
<path d="M351.184 176.401C351.184 176.401 329.322 164.094 325.223 116.233C321.124 68.3716 423.6 43.7573 423.6 43.7573V65.2128L417.451 78.6276C417.451 78.6276 469.508 45.8085 516.579 43.7573H546.584C546.584 43.7573 541.788 60.3583 532.223 66.758C522.659 73.1577 492.6 104.609 492.6 104.609L424.283 167.513L351.184 176.401Z" fill="#369AD6"/>
<path opacity="0.26" d="M524.708 72.474C524.708 72.474 541.104 61.5344 545.203 47.8597C515.144 58.7994 387.815 113.894 387.815 113.894L386.449 117.997L411.043 119.364C411.043 119.364 400.112 137.141 378.251 137.141C356.389 137.141 330.429 128.937 330.429 128.937L337.261 168.593L348.451 179.136L422.233 170.931C422.233 170.931 491.916 105.293 524.708 72.474Z" fill="black"/>
<path d="M422.233 170.931C422.233 170.931 416.768 154.508 422.233 127.159C427.698 99.8096 422.356 101.451 449.615 97.8951C476.873 94.3397 538.522 94.0662 584.827 120.321C625.817 143.568 616.253 173.652 625.817 203.737C625.817 203.737 531.54 154.508 494.649 153.141C457.758 151.773 422.233 170.918 422.233 170.918V170.931Z" fill="#D31E49"/>
<path d="M140.768 250.244C140.768 250.244 140.768 220.16 161.263 181.871C161.263 181.871 220.015 120.335 326.59 120.335C326.59 120.335 338.887 136.745 344.352 155.889C344.352 155.889 345.718 207.853 332.055 206.485C318.392 205.118 140.768 250.244 140.768 250.244Z" fill="#D31E49"/>
<path opacity="0.26" d="M323.078 122.168C323.078 122.168 324.417 155.889 317.312 161.359C310.207 166.829 289.712 165.461 289.712 165.461L318.801 201.699C318.801 201.699 332.875 214.69 338.613 201.699C344.352 188.708 344.366 155.889 344.366 155.889C344.366 155.889 330.702 123.07 326.603 120.335L323.092 122.168H323.078Z" fill="black"/>
<path opacity="0.26" d="M426.332 106.661C426.332 106.661 435.651 146.317 447.879 146.317C460.108 146.317 538.959 148.395 553.825 150.419C573.883 153.154 601.374 170.931 605.445 166.829C609.517 162.726 613.52 149.052 613.52 149.052C613.52 149.052 617.619 157.257 624.451 201.015L594.583 211.955L420.717 177.769C420.717 177.769 418.64 162.371 419.5 144.949C420.266 129.607 423.777 112.431 426.332 106.661Z" fill="black"/>
<path d="M448.453 111.706C445.68 113.101 447.183 120.937 451.295 121.88C455.408 122.824 551.571 126.844 590.73 141.421C591.85 141.845 592.984 140.874 592.779 139.685C592.465 137.866 591.782 135.487 590.252 133.969C580.974 124.684 551.325 114.496 506.14 111.706C463.811 109.095 448.453 111.706 448.453 111.706Z" fill="#0D80F9"/>
<path d="M296.926 133.969C296.926 133.969 301.271 132.574 305.261 133.969C309.251 135.364 305.261 149.271 298.306 150.665C285.968 153.141 199.602 192.4 175.978 216.058C175.978 216.058 164.856 211.887 169.024 204.926C188.07 173.16 262.167 142.324 296.913 133.969H296.926Z" fill="#0D80F9"/>
<path d="M487.38 111.707L476.108 123.781C476.108 123.781 544.712 129.484 561.217 133.805L572.243 123.863C572.243 123.863 555.492 115.877 512.89 112.185L487.38 111.707Z" fill="#76BAFB"/>
<path d="M448.453 111.707C448.453 111.707 444.832 117.97 451.295 121.88C451.295 121.88 554.317 128.294 584.595 139.357L590.73 141.421C590.73 141.421 592.52 141.271 592.779 139.685C593.039 138.099 590.211 133.928 590.252 133.969C590.293 134.01 587.56 129.907 566.805 121.826C554.932 117.204 526.129 111.707 473.498 110.558L448.453 111.72V111.707Z" stroke="black" stroke-width="6" stroke-linecap="round" stroke-linejoin="round"/>
<path d="M431.347 101.095C431.347 101.095 427.698 101.191 426.332 106.661C426.332 106.661 433.902 143.582 447.879 146.317C461.857 149.052 517.849 147.89 552.035 153.154C587.56 158.624 587.819 162.726 605.445 166.829L613.52 149.052C613.52 149.052 608.724 127.172 564.674 110.079C520.623 92.9859 431.36 101.095 431.36 101.095H431.347Z" stroke="black" stroke-width="6" stroke-linecap="round" stroke-linejoin="round"/>
<path d="M426.332 106.661C426.332 106.661 416.003 119.104 419.801 161.427" stroke="black" stroke-width="6" stroke-linecap="round" stroke-linejoin="round"/>
<path d="M317.298 161.359C323.228 149.968 322.75 129.101 322.422 122.455C322.368 121.265 321.397 120.308 320.209 120.253C231.11 115.918 178.041 165.215 163.381 179.738C161.96 181.146 160.839 182.801 160.047 184.633C156.057 193.85 143.487 223.92 141.615 240.303" stroke="black" stroke-width="6" stroke-linecap="round" stroke-linejoin="round"/>
<path d="M322.491 121.703C322.491 121.703 339.761 135.063 343.423 153.674C343.423 153.674 346.156 165.092 344.352 168.196" stroke="black" stroke-width="6" stroke-linecap="round" stroke-linejoin="round"/>
<path d="M329.254 184.073C328.543 171.287 363.508 158.091 438.083 162.084C438.083 162.084 444.136 160.087 444.136 166.077V196.243L417.929 224.044C417.929 224.044 339.324 236.036 325.223 242.039C325.223 242.039 331.276 220.051 329.254 184.073Z" fill="#D20042"/>
<path d="M96.0066 542.894C96.0066 542.894 57.4213 525.104 49.2233 473.14C41.0253 421.177 56.014 359.641 106.582 291.268C157.164 222.895 243.243 161.359 278.768 154.522C278.768 154.522 311.56 217.425 374.411 226.997C374.411 226.997 423.777 163.465 456.474 148.737C456.474 148.737 523.342 149.052 625.817 205.118C728.293 261.184 745.536 345.652 744.429 363.579C743.322 381.507 740.385 410.401 732.296 417.84C724.207 425.279 96.0203 542.894 96.0203 542.894H96.0066Z" fill="#325949"/>
<path d="M58.7739 579.802C58.7739 579.802 62.8729 577.067 66.9719 572.965C71.071 568.863 94.2987 546.983 101.13 536.043C107.962 525.104 125.724 505.959 127.091 459.466C128.457 412.972 154.417 392.46 166.715 376.05C179.012 359.641 218.635 318.617 241.863 307.677C265.091 296.738 327.942 265.286 394.893 259.816C461.843 254.346 536.992 255.714 613.507 314.515C690.021 373.316 669.526 393.827 740.576 421.177C740.576 421.177 739.21 429.381 732.378 434.851C732.378 434.851 735.111 444.424 751.507 444.424C767.903 444.424 715.982 611.254 608.041 660.482C500.101 709.711 341.606 767.144 229.566 708.344C117.526 649.543 127.774 652.961 96.3482 622.877C96.3482 622.877 110.012 617.407 110.012 614.672C110.012 614.672 59.4571 594.161 58.7739 579.802Z" fill="#E6CBAA"/>
<path d="M345.718 418.442C344.188 415.994 354.681 408.774 370.312 404.767C377.445 402.935 412.669 396.562 430.431 402.032C430.431 402.032 439.394 404.877 436.279 408.924C433.833 412.097 413.174 426.223 404.348 432.185C401.642 434.017 398.636 435.344 395.453 436.096C390.329 437.299 382.295 439.815 377.158 438.967C360.762 436.232 349.353 424.254 345.732 418.455L345.718 418.442Z" fill="#3C1920"/>
<path d="M457.771 350.069C457.771 350.069 442.742 414.339 515.158 425.279C587.573 436.219 623.098 412.972 628.564 403.4C634.029 393.827 666.821 367.107 628.564 331.239C590.306 295.37 557.514 288.533 538.385 291.268C519.257 294.003 457.771 350.069 457.771 350.069Z" fill="#BF816B"/>
<path d="M221.395 329.557C221.395 329.557 237.709 328.189 246.632 329.557C255.554 330.924 291.078 341.864 312.94 373.315C334.801 404.767 325.237 421.341 312.94 432.882C300.643 444.423 274.682 473.14 215.93 479.977C157.177 486.815 161.864 453.818 158.148 445.709C154.445 437.586 150.346 406.135 154.445 393.827C158.544 381.52 196.801 329.557 221.395 329.557Z" fill="#BF816B"/>
<path d="M307.543 341.96C318.419 343.327 326.59 343.327 325.223 347.402C323.857 351.477 311.628 363.415 307.543 363.579C303.457 363.743 302.446 358.137 279.833 352.776C257.221 347.416 251.783 335.163 244.978 332.442C238.174 329.721 231.383 328.353 225.932 329.721C225.932 329.721 232.736 322.911 240.893 324.278C249.05 325.646 261.975 337.215 289.179 339.936L307.543 341.973V341.96Z" fill="#56191C"/>
<path d="M438.615 341.604C442.168 344.38 452.252 351.436 463.223 351.436C476.887 351.436 530.174 303.575 537.005 300.84C543.837 298.105 580.728 295.37 580.728 295.37L573.787 292.389C572.052 291.651 570.194 291.268 568.308 291.268H534.423C531.95 291.268 529.545 292.034 527.537 293.469C516.483 301.373 479.073 327.916 472.104 330.24C463.906 332.975 437.468 340.702 438.615 341.604Z" fill="#56191C"/>
<path d="M330.552 500.804C329.473 499.464 329.377 497.495 330.538 496.237C331.003 495.731 331.631 495.362 332.478 495.362C335.211 495.362 338.887 503.224 349.817 505.959C353.042 506.766 359.163 507.436 365.557 507.573C370.955 507.682 376.352 507.436 381.721 506.807C396.368 505.098 426.92 500.749 443.165 492.627C465.027 481.687 485.112 463.609 488.255 459.808C491.93 455.363 493.351 452.095 496.029 452.628C502.861 453.996 496.453 463.691 496.453 463.691C496.453 463.691 479.633 486.815 445.898 499.464C427.821 506.247 399.019 512.797 377.581 514.506C367.949 515.272 354.094 515.162 343.423 510.404C336.523 507.327 332.438 503.115 330.566 500.804H330.552Z" fill="#3C1920"/>
<path opacity="0.09" d="M752.19 444.424C735.794 444.424 733.061 434.851 733.061 434.851C739.893 429.381 741.259 421.177 741.259 421.177C670.209 393.827 690.705 373.316 614.19 314.515C537.675 255.714 462.526 254.346 395.576 259.816C328.625 265.286 265.774 296.738 242.546 307.677C219.318 318.617 179.695 359.641 167.398 376.05C155.101 392.46 129.14 412.972 127.774 459.466C126.408 505.959 108.645 525.104 101.813 536.043C94.9818 546.983 71.7541 568.863 67.6551 572.965C63.556 577.067 59.457 579.802 59.457 579.802C60.1402 594.161 110.695 614.672 110.695 614.672C110.695 617.407 97.0313 622.877 97.0313 622.877C128.457 652.961 118.21 649.543 230.249 708.344C342.289 767.144 500.784 709.711 608.724 660.482C716.665 611.254 768.586 444.424 752.19 444.424ZM685.253 495.02L674.322 514.164L646.995 542.881L623.768 568.863L600.54 575.7L540.421 605.155C540.421 605.155 457.075 637.236 349.134 649.543C241.193 661.85 196.104 630.398 196.104 630.398L202.936 624.928C190.639 620.826 116.857 582.537 116.857 582.537C127.788 577.067 134.182 557.923 134.182 557.923H126.421C142.817 538.778 146.916 473.14 149.649 460.833C152.382 448.526 186.54 397.93 202.936 392.46C219.332 386.99 242.56 371.948 258.956 365.111C275.352 358.273 323.174 344.599 346.538 341.864C369.902 339.129 432.481 336.394 472.719 341.864C512.958 347.334 525.391 341.864 536.322 341.864C547.253 341.864 623.768 365.111 645.629 377.418C667.49 389.725 725.082 453.914 725.082 453.914C718.455 463.404 685.253 495.02 685.253 495.02Z" fill="black"/>
<path d="M198.154 429.381C198.154 429.381 209.085 407.502 239.144 399.297C269.203 391.093 301.996 397.93 301.996 404.767" stroke="#49161C" stroke-width="6" stroke-linecap="round" stroke-linejoin="round"/>
<path d="M472.788 385.623C486.451 377.418 508.312 344.599 583.461 367.846" stroke="#49161C" stroke-width="6" stroke-linecap="round" stroke-linejoin="round"/>
<path opacity="0.09" d="M492.477 461.284L497.505 453.75L497.395 453.996C495.045 452.191 490.81 452.109 487.981 452.3C485.945 452.437 484.019 453.38 482.803 455.021C482.338 455.637 482.051 456.239 482.174 456.703C483.718 462.214 464.59 471.787 457.758 475.889C417.137 500.284 366.938 498.985 354.381 498.985C341.824 498.985 344.338 505.262 344.338 505.262C344.338 505.262 356.895 512.797 380.751 512.797C404.608 512.797 467.377 495.211 481.191 476.354C481.191 476.354 487.462 461.271 492.49 461.271L492.477 461.284Z" fill="black"/>
<path opacity="0.09" d="M347.467 407.406C345.855 406.75 345.459 404.671 346.688 403.454C348.232 401.936 350.582 399.926 353.916 397.93C360.748 393.827 378.51 382.888 401.738 384.255C416.576 385.13 424.173 387.113 427.712 388.44C429.174 388.987 429.748 390.737 428.887 392.036C428.231 393.034 426.961 393.39 425.881 392.898C421.509 390.928 409.13 386.758 387.392 389.547C368.399 391.995 354.75 403.659 350.924 407.283C350.241 407.926 349.243 408.117 348.369 407.762L347.467 407.393V407.406Z" fill="black"/>
<path d="M430.431 402.032C412.669 396.562 377.445 402.935 370.312 404.767C354.681 408.774 344.188 415.994 345.718 418.442C347.33 421.04 350.514 424.855 354.996 428.547C359.942 424.951 382.322 411.14 429.953 414.23C433.15 411.823 435.541 409.882 436.265 408.924C439.381 404.877 430.417 402.032 430.417 402.032H430.431Z" fill="#693D43"/>
<path opacity="0.22" d="M379.549 409.034C379.549 409.034 391.559 403.919 401.957 407.16C401.957 407.16 402.776 413.136 383.648 414.503C364.519 415.871 379.549 409.034 379.549 409.034Z" fill="#E6CBAA"/>
<path d="M605.322 166.829L610.788 194.178L625.817 203.75L613.52 149.052" stroke="black" stroke-width="6" stroke-linecap="round" stroke-linejoin="round"/>
<path d="M327.232 205.569C327.232 205.569 329.322 196.913 329.254 184.073C329.186 171.232 349.161 168.525 349.161 168.525C377.199 160.648 438.083 162.084 438.083 162.084" stroke="black" stroke-width="6" stroke-linecap="round" stroke-linejoin="round"/>
<path d="M289.698 165.461C289.698 165.461 309.387 166.829 317.299 161.359L332.178 176.401" stroke="black" stroke-width="6" stroke-linecap="round" stroke-linejoin="round"/>
<path opacity="0.26" d="M330.429 188.777C330.429 188.777 371.282 179.779 415.88 180.148L373.031 228.365C373.031 228.365 337.766 211.777 332.178 208.454C326.59 205.132 330.429 188.777 330.429 188.777Z" fill="black"/>
<path d="M217.884 165.297C217.884 165.297 268.343 141.982 276.035 139.48L260.76 161.988L189.013 202.451L199.534 177.769L217.898 165.297H217.884Z" fill="#76BAFB"/>
<path d="M274.027 140.833C274.027 140.833 292.609 134.064 301.408 133.353C310.207 132.642 305.015 144.389 305.015 144.389C305.015 144.389 302.843 149.558 298.32 150.679C293.798 151.8 284.37 155.643 284.37 155.643L175.992 216.071C175.992 216.071 169.475 215.305 168.108 207.483C166.742 199.662 185.652 186.725 185.652 186.725C185.652 186.725 228.309 153.154 274.04 140.847L274.027 140.833Z" stroke="black" stroke-width="6" stroke-linecap="round" stroke-linejoin="round"/>
<path d="M254.433 192.523C253.436 191.867 252.152 191.84 251.113 192.455C237.081 201.002 139.442 262.045 105.229 325.454C71.8088 387.4 36.9125 469.038 99.764 531.941L92.9323 542.881C92.9323 542.881 49.2096 508.694 46.4769 492.285C43.7442 475.875 39.6452 443.056 47.8432 406.135C56.0412 369.213 129.823 203.75 278.754 154.522C278.754 154.522 322.477 218.792 373.031 228.365C373.031 228.365 426.318 162.727 456.378 147.684C456.378 147.684 524.695 157.257 591.645 188.708C658.596 220.16 724.18 262.551 743.309 352.804C743.309 352.804 746.041 406.135 733.744 418.442L708.467 405.451C712.566 393.144 735.794 350.752 689.338 304.259C642.883 257.765 589.172 208.044 472.446 176.538C470.465 176.005 468.333 176.251 466.53 177.235C453.796 184.196 401.492 213.842 379.467 242.887C378.005 244.815 375.518 245.636 373.223 244.897C357.032 239.715 294.207 218.683 254.42 192.51L254.433 192.523Z" fill="#73AE4C"/>
<path d="M468.702 256.507C545.941 263.276 605.828 300.567 649.537 345.816C707.797 406.135 706.431 408.87 737.857 418.442" stroke="black" stroke-width="6" stroke-linecap="round" stroke-linejoin="round"/>
<path d="M92.946 542.881C53.3222 514.164 46.4905 492.285 46.4905 492.285L43.02 445.791C82.8214 229.253 251.072 163.985 275.748 155.506C277.538 154.891 279.492 155.534 280.612 157.052C327.778 221.691 373.059 228.351 373.059 228.351C373.059 228.351 425.048 162.986 455.285 148.204C456.023 147.849 456.842 147.725 457.649 147.821C473.416 149.818 634.712 172.723 714.834 283.569C728.293 302.194 763.817 369.199 733.758 418.428L740.576 421.163L732.378 434.838C737.829 445.777 751.506 444.41 751.506 444.41C762.424 467.657 721.461 574.319 654.702 629.674C587.942 685.028 367.58 769.866 245.866 715.947C124.153 662.028 96.3481 622.864 96.3481 622.864L110.012 614.659C62.8592 598.933 58.7739 579.789 58.7739 579.789C58.7739 579.789 123.005 541.5 124.577 483.861C126.148 426.223 138.213 414.476 138.213 414.476C164.351 361.296 221.19 321.338 221.19 321.338C221.19 321.338 267.072 282.188 385.643 260.732C415.278 255.372 442.96 254.237 468.702 256.493" stroke="black" stroke-width="6" stroke-linecap="round" stroke-linejoin="round"/>
<path d="M154.431 748.684C154.431 748.684 169.461 740.479 183.124 737.744C196.788 735.009 254.174 702.19 267.837 691.25C281.5 680.311 360.748 632.45 476.887 625.612C593.025 618.775 654.51 644.757 677.738 683.046C677.738 683.046 684.57 698.088 687.302 717.232C687.302 717.232 668.857 713.814 657.926 704.241H649.728C649.728 704.241 638.797 772.614 581.411 802.699C581.411 802.699 573.213 780.819 571.847 761.675C571.847 761.675 566.382 761.675 562.283 768.512C558.184 775.349 513.095 827.313 510.362 828.68C510.362 828.68 492.599 840.96 448.194 806.787C448.194 806.787 439.312 797.229 440.679 843.722C440.679 843.722 366.896 853.295 320.441 793.126C320.441 793.126 312.954 795.615 304.4 844.283C304.4 844.283 263.055 840.987 235.728 780.819C235.728 780.819 192.005 816.373 175.609 812.271C175.609 812.271 167.411 780.819 176.976 767.145C176.976 767.145 159.213 758.94 154.431 748.684Z" fill="#D90D42"/>
<path opacity="0.09" d="M677.738 683.046C654.51 644.757 593.025 618.775 476.887 625.612C360.748 632.45 281.5 680.311 267.837 691.25C254.174 702.19 196.788 735.009 183.124 737.744C169.461 740.479 154.431 748.684 154.431 748.684C159.213 758.94 176.976 767.145 176.976 767.145C167.411 780.819 175.609 812.271 175.609 812.271C192.005 816.373 235.728 780.819 235.728 780.819C263.055 840.987 304.4 844.283 304.4 844.283C312.954 795.615 320.441 793.126 320.441 793.126C366.896 853.295 440.679 843.722 440.679 843.722C439.312 797.229 448.194 806.787 448.194 806.787C492.599 840.96 510.362 828.68 510.362 828.68C513.095 827.313 558.184 775.349 562.283 768.512C566.382 761.675 571.847 761.675 571.847 761.675C573.213 780.819 581.411 802.699 581.411 802.699C638.797 772.614 649.728 704.241 649.728 704.241H657.926C668.857 713.814 687.302 717.232 687.302 717.232C684.57 698.088 677.738 683.046 677.738 683.046ZM651.778 689.199C650.411 686.464 635.382 685.097 635.382 685.097C635.382 720.651 613.52 743.898 609.421 750.735C605.322 757.572 598.491 753.47 598.491 753.47C590.293 732.958 564.332 717.916 564.332 717.916C527.441 786.289 500.114 786.289 487.817 793.126C475.52 799.964 430.431 756.205 430.431 756.205C426.332 778.084 405.837 786.289 405.837 786.289C392.174 768.512 336.154 739.795 336.154 739.795L280.134 799.964C280.134 799.964 269.203 790.391 261.005 779.835C252.807 769.278 261.005 754.837 261.005 754.837H248.708C236.411 754.837 209.085 768.512 209.085 768.512L211.817 760.307C220.015 750.735 222.748 745.265 222.748 745.265C225.481 741.163 273.302 711.079 273.302 711.079C273.302 711.079 400.372 648.175 448.248 641.229C496.125 634.282 554.768 641.338 595.758 644.073C636.748 646.808 658.609 680.994 658.609 680.994C658.609 680.994 653.144 691.934 651.778 689.199Z" fill="black"/>
<path d="M972.867 566.825C972.867 555.325 962.114 449.415 890.285 428.958C872.988 376.816 961.936 324.784 860.827 304.272C750.154 309.742 772.015 393.157 780.487 409.061C787.619 422.448 769.816 431.132 763.995 433.539C733.731 445.066 709.027 467.93 688.669 509.392C647.679 592.807 677.738 699.469 696.867 722.716C715.996 745.962 751.52 750.065 751.52 750.065C762.451 766.474 791.144 786.986 851.263 778.782C911.382 770.577 923.679 711.776 923.679 711.776C979.698 662.547 972.867 579.132 972.867 566.825Z" fill="#325949"/>
<path d="M811.639 324.784C789.627 341.563 784.203 375.244 799.342 398.627C823.936 436.629 736.49 447.856 751.52 558.62C751.52 558.62 871.758 539.476 914.114 652.975L920.29 673.583C921.219 676.701 925.182 677.658 927.409 675.292C934.486 667.812 946.756 652.852 949.625 636.566C953.724 613.319 988.006 534.785 922.299 457.428C899.071 430.079 880.625 436.232 875.16 428.028C869.695 419.823 872.427 384.269 879.259 370.594C886.091 356.92 894.302 353.761 893.606 343.929C890.873 305.64 840.318 302.905 811.625 324.784H811.639Z" fill="#73AE4C"/>
<path d="M877.223 430.079C858.095 423.242 820.37 423.283 797.962 432.116H785.228L805.231 421.327C805.231 421.327 812.514 418.879 835.386 419.057C845.811 419.139 871.088 420.411 875.871 425.977C875.871 425.977 877.756 430.257 877.237 430.079H877.223Z" fill="#325949"/>
<path d="M756.986 713.143C756.986 713.143 803.441 733.655 826.669 707.674" stroke="black" stroke-width="6" stroke-linecap="round" stroke-linejoin="round"/>
<path d="M795.134 720.801C795.134 720.801 792.51 747.33 752.887 747.33C713.263 747.33 707.811 735.023 692.781 707.674C677.752 680.324 665.441 631.096 666.807 588.704C668.174 546.313 692.112 459.384 775.103 425.58C775.103 425.58 781.58 427.344 777.481 406.832C773.382 386.32 753.119 334.685 832.134 307.007C886.788 287.863 922.312 329.557 907.283 350.766C907.283 350.766 874.6 407.42 888.209 425.58C888.209 425.58 931.877 438.284 951.005 483.41C970.134 528.536 1000.19 622.891 929.144 703.571C929.144 703.571 922.312 719.981 918.213 726.818C914.114 733.655 894.986 771.944 862.194 776.047C829.401 780.149 802.075 793.824 763.817 765.107L741.956 747.33" stroke="black" stroke-width="6" stroke-linecap="round" stroke-linejoin="round"/>
<path d="M787.154 737.594C787.154 737.594 817.214 770.59 888.372 729.553" stroke="black" stroke-width="6" stroke-linecap="round" stroke-linejoin="round"/>
<path d="M327.286 126.037C327.286 126.037 321.985 111.31 330.443 95.3106C338.9 79.3113 377.158 51.9621 423.613 43.7573V65.2128L417.465 78.6276C417.465 78.6276 479.674 36.92 546.597 43.7573C546.597 43.7573 542.348 58.6763 532.237 66.758C523.356 73.8415 499.759 96.9789 499.759 96.9789" stroke="black" stroke-width="6" stroke-linecap="round" stroke-linejoin="round"/>
<path d="M154.431 748.684C154.431 748.684 169.461 740.479 183.124 737.744C196.788 735.009 254.174 702.19 267.837 691.25C281.5 680.311 360.748 632.45 476.887 625.612C593.025 618.775 654.51 644.757 677.738 683.046C677.738 683.046 684.57 698.088 687.302 717.232C687.302 717.232 668.857 713.814 657.926 704.241H649.728C649.728 704.241 638.797 772.614 581.411 802.699C581.411 802.699 573.213 780.819 571.847 761.675C571.847 761.675 566.382 761.675 562.283 768.512C558.184 775.349 513.095 827.313 510.362 828.68C510.362 828.68 492.599 840.96 448.194 806.787C448.194 806.787 439.312 797.229 440.679 843.722C440.679 843.722 366.896 853.295 320.441 793.126C320.441 793.126 312.954 795.615 304.4 844.283C304.4 844.283 263.055 840.987 235.728 780.819C235.728 780.819 192.005 816.373 175.609 812.271C175.609 812.271 167.411 780.819 176.976 767.145C176.976 767.145 159.213 758.94 154.431 748.684Z" stroke="black" stroke-width="6" stroke-linecap="round" stroke-linejoin="round"/>
<path opacity="0.09" d="M98.4113 159.992C98.4113 159.992 131.203 168.196 140.768 176.401C149.13 183.58 148.365 202.273 140.768 222.047C132.57 243.407 120.273 257.081 110.708 254.346C94.7222 249.779 92.946 162.727 98.4113 159.992Z" fill="black"/>
<path opacity="0.09" d="M650.329 103.734C651.559 102.285 653.65 101.984 655.262 102.982C659.962 105.908 669.731 114.25 680.485 136.745C695.514 168.196 707.811 192.811 709.178 216.057C709.178 216.057 708.453 221.527 690.377 216.057C672.3 210.588 657.257 198.28 639.494 165.461C624.547 137.839 643.853 111.419 650.343 103.734H650.329Z" fill="black"/>
</g>
<defs>
<filter id="filter0_d_61_184" x="0.0200195" y="0" width="1016.94" height="887.283" filterUnits="userSpaceOnUse" color-interpolation-filters="sRGB">
<feFlood flood-opacity="0" result="BackgroundImageFix"/>
<feColorMatrix in="SourceAlpha" type="matrix" values="0 0 0 0 0 0 0 0 0 0 0 0 0 0 0 0 0 0 127 0" result="hardAlpha"/>
<feOffset/>
<feGaussianBlur stdDeviation="20"/>
<feColorMatrix type="matrix" values="0 0 0 0 0.670588 0 0 0 0 0.654902 0 0 0 0 0.294118 0 0 0 0.75 0"/>
<feBlend mode="normal" in2="BackgroundImageFix" result="effect1_dropShadow_61_184"/>
<feBlend mode="normal" in="SourceGraphic" in2="effect1_dropShadow_61_184" result="shape"/>
</filter>
</defs>
</svg>
